<?xml version="1.0" encoding="UTF-8" standalone="no"?>
<!-- Created with Inkscape (http://www.inkscape.org/) -->

<svg
   xmlns:dc="http://purl.org/dc/elements/1.1/"
   xmlns:cc="http://creativecommons.org/ns#"
   xmlns:rdf="http://www.w3.org/1999/02/22-rdf-syntax-ns#"
   xmlns:svg="http://www.w3.org/2000/svg"
   xmlns="http://www.w3.org/2000/svg"
   xmlns:sodipodi="http://sodipodi.sourceforge.net/DTD/sodipodi-0.dtd"
   xmlns:inkscape="http://www.inkscape.org/namespaces/inkscape"
   width="134.0712mm"
   height="50.379677mm"
   viewBox="0 0 475.05542 178.51067"
   id="svg18400"
   version="1.1"
   inkscape:version="0.91 r13725"
   sodipodi:docname="crisp-logo.svg">
  <defs
     id="defs18402" />
  <sodipodi:namedview
     id="base"
     pagecolor="#ffffff"
     bordercolor="#666666"
     borderopacity="1.0"
     inkscape:pageopacity="0.0"
     inkscape:pageshadow="2"
     inkscape:zoom="1.979899"
     inkscape:cx="225.64407"
     inkscape:cy="41.431908"
     inkscape:document-units="px"
     inkscape:current-layer="layer1"
     showgrid="false"
     fit-margin-top="2"
     fit-margin-left="2"
     fit-margin-bottom="2"
     fit-margin-right="2"
     inkscape:window-width="1920"
     inkscape:window-height="1056"
     inkscape:window-x="1600"
     inkscape:window-y="24"
     inkscape:window-maximized="1" />
  <metadata
     id="metadata18405">
    <rdf:RDF>
      <cc:Work
         rdf:about="">
        <dc:format>image/svg+xml</dc:format>
        <dc:type
           rdf:resource="http://purl.org/dc/dcmitype/StillImage" />
        <dc:title></dc:title>
      </cc:Work>
    </rdf:RDF>
  </metadata>
  <g
     inkscape:label="Layer 1"
     inkscape:groupmode="layer"
     id="layer1"
     transform="translate(-131.17791,-34.776684)">
    <g
       transform="matrix(4,0,0,4,-2178.4108,35.604032)"
       style="display:inline"
       id="g7537">
      <path
         inkscape:connector-curvature="0"
         id="path7248"
         d="m 619.97708,36.757056 c -1.69761,-0.67751 -3.24987,-2.182069 -4.07129,-3.946158 -0.80365,-1.725976 -0.83436,-2.091789 -0.83766,-9.979211 -0.004,-8.86891 0.17992,-10.108125 1.78651,-12.057204 2.10228,-2.5504291 6.73587,-3.4927196 9.96437,-2.0263637 2.54436,1.1556196 4.34497,4.0335947 4.34998,6.9527027 0.003,1.806143 -0.59173,1.31997 -0.77981,-0.637357 -0.21801,-2.268863 -1.65375,-4.359666 -3.77,-5.4900498 -1.30942,-0.6994216 -1.96658,-0.8208061 -3.88979,-0.7184882 -2.68923,0.1430708 -4.3003,1.0342286 -5.83215,3.226054 l -0.95718,1.369584 -0.10573,8.423587 c -0.11744,9.356686 0.067,10.452974 2.09987,12.485914 4.17411,4.174116 11.80036,1.722072 12.44549,-4.001563 0.21327,-1.892115 0.79126,-2.173964 0.79126,-0.385848 0,2.600195 -2.13968,5.585691 -4.80312,6.701814 -1.29495,0.542649 -5.11432,0.592007 -6.39075,0.08259 z m 43.8361,-0.351481 c -0.82278,-0.407268 -1.96962,-1.313118 -2.54854,-2.013003 -1.12726,-1.362792 -2.27099,-4.550746 -1.80119,-5.020533 0.15654,-0.156553 0.48012,0.478073 0.71903,1.410279 0.88969,3.471344 3.72866,5.664025 7.33352,5.664025 2.60675,0 4.63859,-1.020158 6.12863,-3.077096 2.09731,-2.89525 1.62109,-7.894969 -0.96857,-10.168715 -1.19912,-1.052838 -2.74411,-1.717667 -6.19867,-2.667355 -1.39946,-0.384724 -2.26034,-0.874775 -2.92558,-1.665364 -0.84432,-1.003417 -0.92692,-1.337196 -0.7921,-3.200992 0.13455,-1.860094 0.28644,-2.205344 1.43236,-3.255492 1.10156,-1.009502 1.53126,-1.174731 3.05505,-1.174731 2.24574,0 3.58985,0.692981 4.31724,2.225836 0.64223,1.353417 0.7521,2.676058 0.22228,2.676058 -0.19258,0 -0.35013,-0.322946 -0.35013,-0.717659 0,-2.002482 -1.72901,-3.483964 -4.06605,-3.483964 -2.57785,0 -3.96784,1.426211 -3.97929,4.082965 -0.007,1.588711 0.12108,1.915513 1.05854,2.70434 0.58649,0.49349 1.72881,1.067651 2.53848,1.275912 6.47565,1.665621 8.63456,3.851712 8.63456,8.743278 0,3.589267 -1.4954,6.151581 -4.47822,7.673302 -1.96282,1.001357 -5.29615,0.996314 -7.33135,-0.01109 z m -29.92097,-13.789698 -0.0952,-14.1806016 4.72682,0.00205 c 2.59977,0.00118 5.29683,0.1604011 5.99349,0.3539152 3.43753,0.95485 5.21085,3.4842864 5.21085,7.4326654 0,2.702627 -0.51663,4.209802 -1.91917,5.598964 -0.82717,0.819269 -0.88348,0.989549 -0.38988,1.178962 0.31731,0.121764 1.00604,0.951344 1.53052,1.84351 0.90164,1.533737 0.96011,1.903519 1.07325,6.786617 0.0827,3.571889 0.002,5.164497 -0.26261,5.164497 -0.25607,0 -0.38225,-1.460203 -0.38225,-4.423603 0,-5.229887 -0.40249,-6.833084 -2.15561,-8.586207 l -1.29709,-1.297083 0.84651,-0.554651 c 2.43579,-1.595993 3.06097,-6.992749 1.14538,-9.887392 -1.5331,-2.3166786 -2.82925,-2.7366903 -8.4454,-2.7366903 l -4.82923,0 0.0225,13.7428133 c 0.0146,8.940795 -0.0998,13.742813 -0.32753,13.742813 -0.22596,0 -0.3838,-5.02656 -0.44529,-14.180601 z m 1.48036,0.875458 0,-13.305143 4.21286,0 c 4.88264,0 6.0808,0.362229 7.54413,2.28076 2.14721,2.815135 1.26294,7.837744 -1.66519,9.458176 l -1.28759,0.712556 1.2787,0.689426 c 0.70813,0.381808 1.6316,1.314344 2.06963,2.089969 0.71768,1.27082 0.79147,1.862672 0.7967,6.38997 0.004,3.096702 -0.12706,4.989429 -0.34438,4.989429 -0.2155,0 -0.35013,-1.754425 -0.35013,-4.563006 0,-5.019481 -0.31742,-6.283461 -1.9606,-7.807096 -1.22264,-1.133703 -3.89799,-1.729952 -7.06748,-1.575113 l -2.35132,0.114869 -0.0949,6.915173 c -0.0578,4.212472 -0.22889,6.915173 -0.43767,6.915173 -0.21755,0 -0.34273,-4.860035 -0.34273,-13.305143 z m 9.49424,-1.973254 c 2.53884,-1.482765 3.58651,-5.596136 2.06211,-8.096338 -1.27542,-2.09187 -2.47822,-2.532497 -6.91705,-2.533971 l -3.93903,-0.0013 0,5.543809 c 0,3.049096 0.11817,5.665826 0.2626,5.814956 0.14443,0.14913 1.85656,0.202181 3.80473,0.117892 2.69242,-0.116492 3.82629,-0.319206 4.72664,-0.845039 z m -7.74356,-5.029453 0,-4.901895 2.79399,0 c 4.85888,0 6.79953,1.348148 6.80426,4.726827 0.006,3.677257 -1.811,5.076963 -6.58748,5.076963 l -3.01077,0 0,-4.901895 z m 6.83519,3.649365 c 2.10416,-0.998489 2.86821,-3.886695 1.58496,-5.991293 -0.81255,-1.332608 -2.36777,-1.85492 -5.53153,-1.857743 l -2.18836,-0.002 0,4.201625 0,4.201624 2.48556,0 c 1.53819,0 2.92916,-0.210496 3.64937,-0.552259 z m -6.83519,10.180981 0,-6.477504 2.88862,5.61e-4 c 3.24882,5.95e-4 4.81362,0.576279 6.01493,2.212798 0.63443,0.864258 0.74032,1.598108 0.84628,5.864767 0.0838,3.376001 0.003,4.876882 -0.26261,4.876882 -0.25693,0 -0.38371,-1.39195 -0.38371,-4.21287 0,-6.650514 -0.78164,-7.793622 -5.46361,-7.990263 l -2.93964,-0.123464 0,6.163299 c 0,3.875441 -0.12997,6.163298 -0.35013,6.163298 -0.2208,0 -0.35013,-2.392592 -0.35013,-6.477504 z m 15.75608,-7.702978 c 0,-9.220231 0.12247,-14.180482 0.35014,-14.180482 0.22766,0 0.35013,4.960251 0.35013,14.180482 0,9.220231 -0.12247,14.180482 -0.35013,14.180482 -0.22767,0 -0.35014,-4.960251 -0.35014,-14.180482 z m 1.40054,0 c 0,-9.220231 0.12248,-14.180482 0.35014,-14.180482 0.22766,0 0.35014,4.960251 0.35014,14.180482 0,9.220231 -0.12248,14.180482 -0.35014,14.180482 -0.22766,0 -0.35014,-4.960251 -0.35014,-14.180482 z m 1.75068,0 c 0,-9.220231 0.12247,-14.180482 0.35013,-14.180482 0.22767,0 0.35014,4.960251 0.35014,14.180482 0,9.220231 -0.12247,14.180482 -0.35014,14.180482 -0.22766,0 -0.35013,-4.960251 -0.35013,-14.180482 z m 22.40866,-0.03212 0,-14.2125959 5.1645,0.1253602 c 5.74262,0.1393936 6.44962,0.3539701 8.65785,2.6277197 3.04404,3.134334 2.7955,7.978342 -0.57537,11.214135 -1.57752,1.514313 -3.70802,2.20324 -6.8135,2.20324 l -2.58199,0 0,6.127368 c 0,3.851489 -0.13005,6.127368 -0.35013,6.127368 -0.22082,0 -0.35015,-2.392591 -0.35015,-6.477504 l 0,-6.477503 3.04068,0 c 3.58265,0 5.32437,-0.673334 7.24722,-2.801698 3.17657,-3.516081 2.08503,-8.810426 -2.26321,-10.977241 -1.70825,-0.8512546 -2.21067,-0.9267471 -6.16768,-0.9267471 l -4.30795,0 0,13.8303471 c 0,8.986808 -0.12261,13.830346 -0.35013,13.830346 -0.22767,0 -0.35014,-4.970955 -0.35014,-14.212593 z m 1.40054,0.907452 0,-13.305143 4.00376,0 c 4.23444,0 5.46668,0.274004 6.79698,1.5114 3.00319,2.793455 2.75721,7.427265 -0.52741,9.935249 -1.21643,0.928806 -1.51663,0.989616 -5.43033,1.100013 l -4.14273,0.116858 0,6.973383 c 0,4.415499 -0.12843,6.973383 -0.35014,6.973383 -0.22727,0 -0.35013,-4.668471 -0.35013,-13.305143 z m 9.45722,-2.188345 c 1.98817,-1.353143 2.62245,-2.517561 2.62245,-4.814361 0,-2.296802 -0.63428,-3.461219 -2.62245,-4.814361 -1.02481,-0.697477 -1.5932,-0.787805 -4.95723,-0.787805 l -3.79972,0 0,5.602166 0,5.602165 3.79972,0 c 3.36403,0 3.93242,-0.09033 4.95723,-0.787804 z m -7.70655,-4.814361 0,-4.901894 2.71356,0.0077 c 4.75956,0.01349 6.74011,1.535519 6.74011,5.179735 0,3.2412 -1.97839,4.616366 -6.64133,4.616366 l -2.81234,0 0,-4.901894 z m 6.44301,3.713407 c 1.60096,-0.668928 2.31038,-1.809159 2.31038,-3.713407 0,-2.922402 -1.7555,-4.201625 -5.76598,-4.201625 l -2.28713,0 0,4.201625 0,4.201624 2.28713,0 c 1.25791,0 2.81293,-0.219698 3.4556,-0.488217 z m -66.77658,15.187998 c -1.50392,-0.451414 -3.22616,-1.915576 -3.88408,-3.30205 -0.51589,-1.087138 -0.57819,-2.363444 -0.48695,-9.973822 0.0985,-8.218229 0.14736,-8.784749 0.8371,-9.714824 3.58376,-4.8324235 11.24208,-3.0231227 11.74153,2.773969 0.16955,1.96792 -0.52454,1.744835 -0.80982,-0.260288 -0.62333,-4.380753 -6.46746,-6.2678541 -9.46283,-3.05559 -1.62635,1.744133 -1.67613,2.066622 -1.67613,10.858838 0,8.108261 0.025,8.411286 0.7878,9.532013 1.34437,1.975289 2.48648,2.596776 4.79703,2.610337 1.55936,0.0091 2.30677,-0.167127 3.05424,-0.720347 1.46726,-1.08596 2.56525,-2.892745 2.56525,-4.22121 0,-0.748212 0.17028,-1.173694 0.4697,-1.173694 0.35526,0 0.41363,0.362575 0.2396,1.488075 -0.29039,1.877947 -0.76741,2.755713 -2.11282,3.887801 -1.69097,1.422859 -3.96452,1.899655 -6.05962,1.270792 z m 43.87723,-0.01665 c -1.99465,-0.834292 -4.20163,-3.798412 -4.20163,-5.643037 0,-1.010912 0.57764,-0.462158 0.82726,0.785876 0.65969,3.298461 4.57891,5.382542 7.81579,4.156121 1.40165,-0.531073 2.55224,-1.682669 3.30005,-3.302964 0.82116,-1.779219 0.82046,-3.468232 -0.003,-5.27955 -0.79429,-1.748842 -2.11648,-2.833419 -4.02104,-3.29839 -4.04762,-0.988177 -5.07352,-1.441021 -6.27343,-2.769166 -1.40397,-1.554025 -1.81235,-2.957459 -1.48867,-5.115897 0.3114,-2.076546 1.47516,-3.694061 3.33307,-4.632651 3.03702,-1.5342599 6.26593,-0.7903432 8.15988,1.879975 1.00297,1.414253 1.67759,3.984792 1.04568,3.984792 -0.19258,0 -0.43987,-0.552961 -0.54954,-1.228801 -0.86767,-5.3468745 -8.61217,-6.3035636 -10.80985,-1.335356 -0.96724,2.186611 -0.73034,4.336064 0.63616,5.77212 1.3087,1.375306 1.61604,1.526393 4.8893,2.40356 3.31294,0.887804 4.88613,2.00012 5.82239,4.116686 0.888,2.007479 0.7419,5.228903 -0.30049,6.625056 -1.54107,2.0641 -3.16851,3.028824 -5.2996,3.141545 -1.10435,0.05841 -2.4018,-0.05855 -2.88323,-0.259919 z M 620.77143,33.426719 C 618.46614,32.289993 618.391,31.948748 618.391,22.61599 c 0,-7.529514 0.0658,-8.500229 0.63325,-9.335956 1.39386,-2.053039 4.81273,-2.66683 6.93042,-1.244224 1.34373,0.902683 2.36296,3.219806 1.89643,4.311345 -0.22624,0.529288 -0.34458,0.341981 -0.57428,-0.90894 -0.41371,-2.252927 -1.87081,-3.501354 -4.08661,-3.501354 -0.94413,0 -2.00562,0.237008 -2.44742,0.546458 -1.66479,1.166061 -1.82663,2.05479 -1.82604,10.027749 4.6e-4,6.400556 0.0874,7.630797 0.61273,8.678367 0.8013,1.597635 1.95736,2.169071 4.03744,1.995711 2.08038,-0.173387 3.33076,-1.244471 3.62884,-3.108495 0.11726,-0.733311 0.37123,-1.333293 0.56439,-1.333293 0.49635,0 0.0645,2.337415 -0.62699,3.392565 -1.12912,1.723251 -4.21495,2.349367 -6.36173,1.290796 z m 44.17258,-0.06303 c -1.63829,-1.030768 -3.0626,-3.683576 -2.08582,-3.884889 0.19257,-0.03969 0.39765,0.211891 0.45571,0.559069 0.34432,2.058499 1.89074,3.257246 4.20195,3.257246 1.74476,0 3.62825,-1.240794 4.1069,-2.705518 0.95654,-2.927146 -0.47273,-5.64225 -3.36194,-6.386461 -4.12961,-1.06372 -5.2662,-1.489813 -6.3045,-2.36348 -2.95835,-2.489291 -3.26218,-7.877328 -0.62463,-11.077131 3.12133,-3.786725 9.78788,-3.560053 12.6233,0.42921 0.9332,1.312944 1.95599,4.440488 1.57632,4.820155 -0.38737,0.387365 -0.94357,-0.280795 -0.94357,-1.133494 0,-1.928289 -2.27961,-4.9524704 -4.31196,-5.7203458 -1.50788,-0.5697163 -4.4557,-0.4300721 -6.03152,0.2857266 -2.78585,1.2654342 -4.19629,3.9109842 -3.94408,7.3978482 0.25355,3.505232 2.2593,5.337046 7.06388,6.451303 2.69201,0.624317 3.91956,1.327102 4.56555,2.613807 1.19815,2.386532 0.87465,5.13183 -0.80232,6.808804 -0.88484,0.884828 -1.3894,1.07897 -3.08777,1.188061 -1.55812,0.100082 -2.2778,-0.02544 -3.0955,-0.539911 z"
         style="fill:#1a428a;fill-opacity:1" />
      <g
         transform="matrix(0.93130521,0,0,0.93130521,80.629225,0.10749868)"
         id="g7433">
        <path
           style="fill:#eed930;fill-opacity:1"
           d="m 565.30224,18.046636 c -0.46121,0.160281 -0.99567,0.505389 -1.32491,0.693325 0.31785,0 -0.68278,2.185588 -1.30071,2.870495 -0.32161,0.356501 -0.57929,0.878396 -0.57929,1.177019 0,0.295148 -0.0995,0.834119 -0.22194,1.196279 -0.1883,0.556841 -0.15712,0.76949 0.20689,1.376763 0.23678,0.394921 0.60992,1.251874 0.82756,1.90402 0.55533,1.664068 1.1028,2.375085 2.05762,2.670035 l 0.81062,0.250077 -0.0809,0.04458 c 0.55462,-0.06582 0.76275,-0.07883 1.28836,-0.149213 0.0438,-0.05143 0.0681,-0.096 0.20688,-0.172641 0.52333,-0.288695 1.07664,-1.390563 0.93289,-1.857558 -0.0612,-0.19885 -0.56765,-0.815654 -1.12473,-1.372792 -0.68628,-0.686297 -1.15229,-1.398108 -1.44634,-2.204628 -0.69008,-1.892603 -0.51141,-2.526879 1.50841,-5.343843 0.31923,-0.445155 0.35968,-0.637453 0.17492,-0.827964 -0.76289,-0.44611 -1.17366,-0.311937 -1.93534,-0.253949 z"
           id="path7423"
           inkscape:connector-curvature="0"
           sodipodi:nodetypes="cccssccccccccccccc" />
        <path
           style="fill:#1a428a;fill-opacity:1"
           d="m 535.97894,45.347295 c -0.89897,-1.680567 -0.88506,-7.791618 0.0236,-10.349224 1.63302,-4.596672 2.61153,-6.764834 4.06196,-9.00033 1.02669,-1.582421 1.47194,-2.77581 1.29647,-3.474941 -0.088,-0.350712 0.23929,-1.13543 1.16571,-2.794738 1.34036,-2.400689 4.4235,-8.616702 4.42112,-8.913529 -0.002,-0.23498 -3.52704,6.369728 -4.0664,7.618786 -0.24044,0.556801 -0.49218,0.957339 -0.55943,0.890085 -0.10705,-0.107042 -1.06207,-6.127686 -1.0828,-6.826159 -0.004,-0.145593 0.12187,-0.264715 0.28043,-0.264715 0.18599,0 0.25551,-0.171519 0.19591,-0.483311 -0.0745,-0.38948 0.50782,-1.105978 2.99911,-3.690453 1.70033,-1.763927 3.36949,-3.3301872 3.70925,-3.4805774 0.33975,-0.1503923 0.6595,-0.4331636 0.71056,-0.6283839 0.0576,-0.2204234 0.55902,-0.4904735 1.32295,-0.7125529 0.67657,-0.1966858 2.0342,-0.6904587 3.01697,-1.0972736 1.3237,-0.5479463 1.84859,-0.6779047 2.02511,-0.5013924 0.36805,0.3680605 0.28831,2.1711886 -0.12385,2.8002247 -0.4764,0.7270636 -2.61315,1.9377945 -3.45166,1.9557775 -0.50031,0.01074 -0.81363,0.204839 -1.28302,0.794831 -0.34158,0.42935 -0.90695,0.890702 -1.25638,1.025231 -0.34942,0.13453 -0.84385,0.326483 -1.09874,0.426567 -0.25488,0.100081 -0.57267,0.386108 -0.7062,0.635611 l -0.24278,0.453647 0.61279,-0.453058 c 0.4914,-0.36331 7.3145,-2.914023 9.58817,-3.584397 0.6185,-0.182361 5.26715,0.20637 5.68394,0.475304 0.39416,0.254341 0.12494,1.588173 -0.44399,2.199681 -0.24399,0.262246 -0.78423,0.571432 -1.20055,0.687079 -1.08849,0.302375 -3.68636,0.268635 -4.01023,-0.05208 -0.21415,-0.212069 -0.31199,-0.18549 -0.49195,0.133637 -0.21543,0.382022 -5.71163,3.157889 -6.26406,3.163677 -0.16112,0.0017 -0.21959,0.154664 -0.14679,0.384026 0.0666,0.209672 0.007,0.979994 -0.13135,1.711829 -0.29359,1.548131 -0.40329,1.684569 -3.74247,4.654745 -2.24013,1.992578 -2.38115,2.165314 -2.36076,2.891759 l 0.0217,0.772594 0.15563,-0.635317 c 0.23157,-0.94535 5.97121,-6.404758 8.27192,-7.868051 1.37456,-0.874245 1.38014,-0.875651 3.91779,-0.988558 3.31362,-0.147432 6.33838,0.231112 7.32789,0.917074 1.56994,1.088337 3.32858,2.558298 3.45507,2.887918 0.0734,0.191394 -0.0104,0.507043 -0.18634,0.701443 -0.2457,0.271495 -0.26195,0.411379 -0.0701,0.603239 0.19186,0.19186 0.14971,0.385164 -0.18179,0.833609 -2.09748,2.837501 -2.28349,3.476524 -1.56688,5.382958 0.30536,0.812386 0.78984,1.528001 1.5025,2.219339 0.5785,0.561191 1.10385,1.184274 1.16744,1.384632 0.14928,0.470328 -0.42468,1.578658 -0.96813,1.869506 -0.42157,0.225621 -0.42157,0.226669 0.002,0.681527 0.23343,0.250558 0.42442,0.708713 0.42442,1.018121 0,0.625167 -0.37792,1.029452 -1.48241,1.585822 -0.40766,0.205354 -1.36808,0.78125 -2.13427,1.279769 -0.76618,0.498519 -2.38624,1.407635 -3.60013,2.020258 -1.21389,0.612624 -2.39766,1.274246 -2.63061,1.470275 -0.55939,0.470733 -8.62501,4.203269 -9.43126,4.364521 -0.6728,0.13456 -0.70909,0.236997 -0.63733,1.798999 0.0571,1.241779 0.36409,1.176324 -6.37572,1.359209 -4.96177,0.134636 -5.23086,0.122042 -5.43215,-0.254265 z m 12.75292,-3.383389 c 0.18424,-0.0707 0.33498,-0.220273 0.33498,-0.332388 0,-0.294468 -0.90335,-0.118442 -1.00698,0.196216 -0.0949,0.288281 0.14756,0.337419 0.672,0.136172 z m 0.66728,-0.953995 c 0.15964,-0.25831 -0.31598,-0.646722 -0.5869,-0.479284 -0.0929,0.05743 -0.16894,0.241734 -0.16894,0.409572 0,0.359361 0.54572,0.409693 0.75584,0.06971 z m 8.77392,-3.586615 c 0,-0.260745 -0.39291,-0.457314 -0.62607,-0.313216 -0.30938,0.19121 -0.0158,0.736145 0.32594,0.605005 0.16507,-0.06335 0.30013,-0.194649 0.30013,-0.291789 z m -0.63532,-0.907521 c 0,-0.393651 -0.2028,-0.554878 -0.53676,-0.426724 -0.35395,0.135825 -0.1585,0.709086 0.24176,0.709086 0.16225,0 0.295,-0.127063 0.295,-0.282362 z m -2.27655,-0.710094 c 0.0874,-0.05027 0.15883,-0.193256 0.15883,-0.317744 0,-0.328281 -1.72676,-0.01563 -2.11773,0.383437 -0.28469,0.290593 -0.20777,0.308752 0.74121,0.174975 0.58237,-0.0821 1.13033,-0.190398 1.21769,-0.240668 z m 1.71622,-0.38822 c -0.0605,-0.157717 -0.2451,-0.234932 -0.41017,-0.171588 -0.31644,0.12143 -0.38488,0.338069 -0.17354,0.549401 0.22448,0.224487 0.69738,-0.0816 0.58371,-0.377813 z m -6.14543,0.0042 c -0.10533,-0.638481 1.04703,-1.020906 1.27626,-0.423545 0.067,0.174713 0.32659,0.317659 0.57678,0.317659 0.37101,0 0.43622,-0.09761 0.35367,-0.529431 -0.10011,-0.523694 -0.0852,-0.529431 1.37218,-0.529431 0.81037,0 2.01219,-0.151447 2.67073,-0.336547 3.46291,-0.973347 5.49572,-1.663134 6.03988,-2.049492 0.3339,-0.237068 1.07471,-0.686757 1.64626,-0.99931 l 1.03917,-0.568276 -0.84147,-0.252113 c -0.99153,-0.29707 -1.56125,-1.013925 -2.13793,-2.690087 -0.22601,-0.65689 -0.6121,-1.519859 -0.85798,-1.917705 -0.37801,-0.611642 -0.41135,-0.825809 -0.21581,-1.386714 0.12718,-0.364846 0.23124,-0.906666 0.23124,-1.204047 0,-0.300802 0.26635,-0.827035 0.60033,-1.186089 0.64169,-0.689865 1.62602,-2.869011 1.29595,-2.869011 -0.10889,0 -0.82436,-0.428839 -1.58995,-0.952977 -0.76558,-0.524137 -1.50506,-0.950191 -1.64329,-0.946788 -1.00904,0.02484 -4.89483,0.841988 -5.12445,1.077631 -0.15688,0.160986 -0.60171,0.737025 -0.98853,1.280085 -0.38681,0.543061 -1.72775,2.250773 -2.97985,3.794919 -1.69665,2.092373 -2.27655,2.960208 -2.27655,3.406896 0,0.44515 -0.10231,0.59936 -0.39762,0.59936 -0.21869,0 -0.51155,-0.137281 -0.6508,-0.305071 -0.41076,-0.494931 -0.91719,-0.152012 -0.78101,0.528849 0.13798,0.689942 -0.28297,1.144306 -0.88355,0.953686 -0.23956,-0.07603 -0.514,0.0046 -0.67471,0.198249 -0.22326,0.269008 -0.20663,0.397429 0.0946,0.730227 0.47537,0.525281 0.34499,1.158431 -0.25622,1.244206 -0.66967,0.09554 -0.66787,1.040131 0.002,1.135291 0.53157,0.0755 0.79673,0.96906 0.36647,1.234974 -0.14945,0.09237 -0.19447,0.340634 -0.11001,0.606745 0.11196,0.352739 0.25523,0.422224 0.66073,0.320448 0.67941,-0.170521 1.20906,0.253877 0.94128,0.754228 -0.36931,0.690073 0.54137,1.1566 1.0534,0.539636 0.3956,-0.476657 0.83246,-0.383717 1.06445,0.226457 0.15181,0.399297 0.3336,0.526117 0.68302,0.476488 0.26188,-0.03719 0.46043,-0.162925 0.44121,-0.2794 z m -1.55336,-1.41288 c -0.84689,-0.239862 -1.60001,-0.870038 -2.03196,-1.700247 -0.42985,-0.826144 -0.37602,-2.481461 0.10438,-3.210124 0.38419,-0.58274 1.42421,-1.402158 1.7833,-1.405049 0.0954,-8.47e-4 0.1071,0.758466 0.0261,1.687183 l -0.1473,1.688577 0.70117,0.79975 c 0.38564,0.439862 1.0227,1.055806 1.41569,1.368768 l 0.71453,0.56902 -0.80647,0.223945 c -0.44355,0.123171 -0.85411,0.215883 -0.91234,0.206027 -0.0582,-0.0098 -0.43943,-0.112387 -0.84709,-0.22785 z m 7.30615,0.671677 c -0.072,-0.116475 -0.26821,-0.211773 -0.43605,-0.211773 -0.16784,0 -0.30516,0.0953 -0.30516,0.211773 0,0.116474 0.19622,0.211772 0.43605,0.211772 0.23982,0 0.37714,-0.0953 0.30516,-0.211772 z m 7.72969,-0.84709 c 0,-0.116475 -0.0897,-0.211773 -0.19927,-0.211773 -0.1096,0 -0.25817,0.0953 -0.33016,0.211773 -0.072,0.116475 0.0177,0.211772 0.19927,0.211772 0.18159,0 0.33016,-0.0953 0.33016,-0.211772 z m -0.42354,-0.635318 c 0,-0.116475 -0.0897,-0.211772 -0.19928,-0.211772 -0.1096,0 -0.25817,0.0953 -0.33015,0.211772 -0.072,0.116475 0.0177,0.211773 0.19927,0.211773 0.18159,0 0.33016,-0.0953 0.33016,-0.211773 z m -0.42355,-0.635317 c 0,-0.116475 -0.14857,-0.211773 -0.33016,-0.211773 -0.18158,0 -0.27125,0.0953 -0.19927,0.211773 0.072,0.116475 0.22056,0.211772 0.33016,0.211772 0.1096,0 0.19927,-0.0953 0.19927,-0.211772 z m 4.11871,-3.225346 c 0.51696,-0.738065 0.40313,-1.063892 -0.75278,-2.154857 -1.2089,-1.140983 -1.84303,-2.368592 -2.02733,-3.924688 -0.10499,-0.886463 -0.037,-1.19349 0.4474,-2.020045 0.31417,-0.536084 0.85087,-1.29321 1.19268,-1.682501 0.75139,-0.85579 0.78538,-1.181319 0.12334,-1.181319 -0.9988,0 -1.88927,0.860058 -2.30456,2.225852 -0.21212,0.697616 -0.56284,1.804498 -0.77937,2.459737 -0.38598,1.168012 -0.3856,1.215703 0.0196,2.435383 0.23447,0.70584 0.68315,1.501539 1.03713,1.839242 0.34314,0.327362 0.825,0.994445 1.07082,1.482407 0.65799,1.306188 0.79993,1.441862 1.25414,1.198777 0.21475,-0.114929 0.53828,-0.420024 0.71897,-0.677988 z m -2.33337,-0.403854 c -0.30321,-0.598363 -0.80824,-1.304131 -1.12227,-1.568375 -0.36292,-0.305375 -0.71249,-0.952863 -0.95933,-1.776921 -0.38496,-1.285122 -0.38428,-1.30987 0.0778,-2.825905 0.69259,-2.272084 1.10034,-3.403947 1.33298,-3.700095 0.13805,-0.175746 0.13316,-0.264715 -0.0145,-0.264715 -0.12237,0 -0.4152,0.515078 -0.65075,1.144619 -0.23554,0.62954 -0.64994,1.368097 -0.92088,1.641237 -0.32205,0.324647 -0.58885,0.984274 -0.77048,1.904883 -0.24382,1.2358 -0.23701,1.470605 0.0557,1.91728 0.18343,0.279959 0.51704,1.042444 0.74135,1.694411 0.54182,1.574824 1.03147,2.284032 1.81152,2.62381 0.98507,0.429078 1.0115,0.379223 0.4189,-0.790229 z m -13.24496,-8.147258 c 1.70686,-2.021621 2.12654,-2.722404 1.27187,-2.123775 -1.21428,0.85052 -3.64802,4.158699 -3.05944,4.158699 0.0382,0 0.84263,-0.915715 1.78757,-2.034924 z m 3.16882,-3.785199 c -0.17632,-0.176315 -0.84399,0.520025 -0.70862,0.739046 0.0999,0.161612 0.25404,0.09174 0.46635,-0.211376 0.17443,-0.249036 0.28345,-0.486488 0.24227,-0.52767 z m -0.60041,-0.217062 c 0.39714,-0.205373 0.57477,-0.430711 0.49774,-0.63144 -0.0951,-0.247725 -0.21369,-0.263428 -0.57508,-0.07612 -0.71767,0.37197 -0.98956,0.636012 -0.86404,0.839108 0.15463,0.250186 0.22116,0.240887 0.94138,-0.131551 z m -0.54508,-0.97204 c 1.02055,-0.602141 0.72467,-0.95621 -0.31212,-0.373499 -0.45265,0.254398 -0.77359,0.542472 -0.71322,0.640161 0.15005,0.242778 0.17124,0.237268 1.02534,-0.266662 z m 7.31857,-0.19104 c 0,-0.116475 -0.23825,-0.211772 -0.52944,-0.211772 -0.29118,0 -0.52943,0.0953 -0.52943,0.211772 0,0.116475 0.23825,0.211773 0.52943,0.211773 0.29119,0 0.52944,-0.0953 0.52944,-0.211773 z m -7.81147,-0.674313 c 0.45263,-0.254398 0.82297,-0.524408 0.82297,-0.600021 0,-0.376532 -0.3163,-0.336142 -0.99975,0.127656 -0.41444,0.281249 -0.83553,0.511361 -0.93575,0.511361 -0.10022,0 -0.18222,0.0953 -0.18222,0.211772 0,0.329863 0.39923,0.252541 1.29475,-0.250768 z m 8.23501,0.03156 c 0,-0.216948 -1.02959,-0.459196 -1.28383,-0.30207 -0.11302,0.06985 -0.16505,0.191887 -0.11563,0.271196 0.1239,0.198818 1.39946,0.226961 1.39946,0.03087 z m 0.63532,-0.81177 c 0,-0.199286 -1.7253,-0.490905 -1.89577,-0.320433 -0.0571,0.05709 0.0364,0.192463 0.20772,0.300821 0.39449,0.24948 1.68805,0.26451 1.68805,0.01961 z M 554.06933,2.8008332 c 1.01951,-0.4458191 1.63497,-0.9451552 1.16496,-0.9451552 -0.48781,0 -3.60376,1.3473556 -3.50089,1.5138045 0.14335,0.2319417 0.95943,0.033278 2.33593,-0.5686493 z M 540.2522,24.515334 c 0.0592,-0.291188 0.16536,-1.768301 0.23587,-3.282474 0.12381,-2.658797 0.002,-4.210925 -0.74735,-9.517447 -0.13062,-0.925026 -0.19607,-1.898501 -0.14545,-2.163278 0.0506,-0.264779 0.0303,-0.508565 -0.0451,-0.541746 -0.13803,-0.06074 -1.02024,-2.963753 -1.2193,-4.0122324 -0.0808,-0.4254212 0.004,-0.6229329 0.34582,-0.8058788 1.19233,-0.638117 2.97809,1.1158311 2.97809,2.9250502 0,0.338939 0.14988,0.97497 0.33307,1.413399 0.4007,0.959011 0.29476,1.480551 -0.50522,2.487188 l -0.60526,0.761621 0.26363,2.079506 c 0.39532,3.11836 0.7502,5.442311 0.85762,5.616115 0.0526,0.08519 -0.11714,0.563167 -0.37731,1.06218 -0.27446,0.526434 -0.53204,1.513929 -0.61361,2.352429 -0.0907,0.932294 -0.26881,1.571087 -0.5019,1.800066 -0.33906,0.333089 -0.35467,0.322347 -0.25363,-0.174498 z M 539.50745,6.148015 c -0.25423,-1.3642081 -0.38844,-1.7510676 -0.60746,-1.7510676 -0.40101,0 -0.39444,0.4222255 0.0259,1.6669736 0.50861,1.506064 0.85591,1.556284 0.58155,0.08409 z"
           id="path7313"
           inkscape:connector-curvature="0" />
      </g>
    </g>
  </g>
</svg>
